<svg width="11" height="12" viewBox="0 0 11 12" fill="none" xmlns="http://www.w3.org/2000/svg">
<path fill-rule="evenodd" clip-rule="evenodd" d="M1 6C1 3.51472 3.01472 1.5 5.5 1.5C7.98528 1.5 10 3.51472 10 6C10 8.48528 7.98528 10.5 5.5 10.5C3.01472 10.5 1 8.48528 1 6ZM5.5 11.5C2.46243 11.5 0 9.03757 0 6C0 2.96243 2.46243 0.5 5.5 0.5C8.53757 0.5 11 2.96243 11 6C11 9.03757 8.53757 11.5 5.5 11.5ZM5 8.5625V8.0625V6V5.5H6V6V8.0625V8.5625H5ZM5.5 3.40234C5.16992 3.40234 4.90234 3.66992 4.90234 4C4.90234 4.33008 5.16992 4.59766 5.5 4.59766C5.83008 4.59766 6.09766 4.33008 6.09766 4C6.09766 3.66992 5.83008 3.40234 5.5 3.40234Z" fill="black" fill-opacity="0.8"/>
</svg>
